<svg width="36" height="28" viewBox="0 0 36 28" fill="none" xmlns="http://www.w3.org/2000/svg">
<path d="M16.4 21.7L22 16.1L27.6 21.7L29.75 19.55L24.1 14L29.65 8.45L27.5 6.3L22 11.9L16.4 6.3L14.25 8.45L19.9 14L14.25 19.55L16.4 21.7ZM0 14L8.45 2.05C8.88333 1.45 9.4 0.958333 10 0.575C10.6 0.191666 11.2667 0 12 0H33C33.8333 0 34.5417 0.291667 35.125 0.875C35.7083 1.45833 36 2.16667 36 3V25C36 25.8333 35.7083 26.5417 35.125 27.125C34.5417 27.7083 33.8333 28 33 28H12C11.2667 28 10.6 27.8083 10 27.425C9.4 27.0417 8.88333 26.55 8.45 25.95L0 14ZM3.75 14L11.45 25H33V3H11.45L3.75 14ZM33 14V3V25V14Z" fill="black"/>
</svg>
